<svg id="Layer_1" data-name="Layer 1" xmlns="http://www.w3.org/2000/svg" xmlns:xlink="http://www.w3.org/1999/xlink" viewBox="0 0 868.08 905.13"><defs><style>.cls-1{fill:none;}.cls-2{clip-path:url(#clip-path);}.cls-3{clip-path:url(#clip-path-2);}.cls-4{fill:#231f20;}.cls-5{fill:#fff;}</style><clipPath id="clip-path" transform="translate(63.56 216)"><rect class="cls-1" x="-0.22" width="678.05" height="456.33"/></clipPath><clipPath id="clip-path-2" transform="translate(63.56 216)"><rect class="cls-1" x="-63.56" y="-216" width="868.08" height="905.13"/></clipPath></defs><title>checkered-design</title><g class="cls-2"><g class="cls-3"><path class="cls-4" d="M374.1,637.31c222.67,0,403.19-183.18,403.19-409.14S596.77-181,374.1-181-29.08,2.2-29.08,228.17,151.43,637.31,374.1,637.31" transform="translate(63.56 216)"/></g><rect class="cls-5" x="688.87" y="760.8" width="25.66" height="47.66"/><rect class="cls-5" x="637.56" y="665.49" width="25.66" height="47.66"/><rect class="cls-5" x="663.21" y="713.14" width="25.66" height="47.66"/><rect class="cls-5" x="714.53" y="713.14" width="25.66" height="47.66"/><rect class="cls-5" x="663.21" y="617.83" width="25.66" height="47.66"/><rect class="cls-5" x="611.9" y="617.83" width="25.66" height="47.66"/><rect class="cls-5" x="611.9" y="713.14" width="25.66" height="47.66"/><rect class="cls-5" x="586.24" y="760.8" width="25.66" height="47.66"/><rect class="cls-5" x="585.82" y="665.49" width="25.66" height="47.66"/><rect class="cls-5" x="714.53" y="617.83" width="25.66" height="47.66"/><rect class="cls-5" x="740.19" y="665.49" width="25.66" height="47.66"/><rect class="cls-5" x="637.56" y="760.8" width="25.66" height="47.66"/><rect class="cls-5" x="688.87" y="665.49" width="25.66" height="47.66"/><rect class="cls-5" x="534.59" y="567.39" width="25.66" height="47.66"/><rect class="cls-5" x="560.25" y="615.05" width="25.66" height="47.66"/><rect class="cls-5" x="611.57" y="615.05" width="25.66" height="47.66"/><rect class="cls-5" x="560.25" y="519.74" width="25.66" height="47.66"/><rect class="cls-5" x="508.93" y="519.74" width="25.66" height="47.66"/><rect class="cls-5" x="508.93" y="615.05" width="25.66" height="47.66"/><rect class="cls-5" x="483.27" y="662.71" width="25.66" height="47.66"/><rect class="cls-5" x="482.85" y="567.39" width="25.66" height="47.66"/><rect class="cls-5" x="611.57" y="519.74" width="25.66" height="47.66"/><rect class="cls-5" x="637.22" y="567.39" width="25.66" height="47.66"/><rect class="cls-5" x="534.59" y="662.71" width="25.66" height="47.66"/><rect class="cls-5" x="585.91" y="567.39" width="25.66" height="47.66"/><rect class="cls-5" x="483.27" y="762.16" width="25.66" height="47.66"/><rect class="cls-5" x="508.93" y="809.82" width="25.66" height="47.66"/><rect class="cls-5" x="560.25" y="809.82" width="25.66" height="47.66"/><rect class="cls-5" x="508.93" y="714.5" width="25.66" height="47.66"/><rect class="cls-5" x="457.61" y="714.5" width="25.66" height="47.66"/><rect class="cls-5" x="457.61" y="809.82" width="25.66" height="47.66"/><rect class="cls-5" x="431.95" y="857.48" width="25.66" height="47.66"/><rect class="cls-5" x="431.53" y="762.16" width="25.66" height="47.66"/><rect class="cls-5" x="560.25" y="714.5" width="25.66" height="47.66"/><rect class="cls-5" x="585.91" y="762.16" width="25.66" height="47.66"/><rect class="cls-5" x="483.27" y="857.48" width="25.66" height="47.66"/><rect class="cls-5" x="534.59" y="762.16" width="25.66" height="47.66"/><rect class="cls-5" x="407.65" y="428.91" width="25.66" height="47.66"/><rect class="cls-5" x="433.31" y="476.57" width="25.66" height="47.66"/><rect class="cls-5" x="484.63" y="476.57" width="25.66" height="47.66"/><rect class="cls-5" x="433.31" y="381.25" width="25.66" height="47.66"/><rect class="cls-5" x="382" y="381.25" width="25.66" height="47.66"/><rect class="cls-5" x="382" y="476.57" width="25.66" height="47.66"/><rect class="cls-5" x="356.34" y="524.22" width="25.66" height="47.66"/><rect class="cls-5" x="355.92" y="428.91" width="25.66" height="47.66"/><rect class="cls-5" x="484.63" y="381.25" width="25.66" height="47.66"/><rect class="cls-5" x="510.29" y="428.91" width="25.66" height="47.66"/><rect class="cls-5" x="407.65" y="524.22" width="25.66" height="47.66"/><rect class="cls-5" x="458.97" y="428.91" width="25.66" height="47.66"/><rect class="cls-5" x="357.29" y="615.4" width="25.66" height="47.66"/><rect class="cls-5" x="382.95" y="663.06" width="25.66" height="47.66"/><rect class="cls-5" x="434.27" y="663.06" width="25.66" height="47.66"/><rect class="cls-5" x="382.95" y="567.75" width="25.66" height="47.66"/><rect class="cls-5" x="331.63" y="567.75" width="25.66" height="47.66"/><rect class="cls-5" x="331.63" y="663.06" width="25.66" height="47.66"/><rect class="cls-5" x="305.97" y="710.72" width="25.66" height="47.66"/><rect class="cls-5" x="305.56" y="615.4" width="25.66" height="47.66"/><rect class="cls-5" x="150.23" y="516.37" width="25.66" height="47.66"/><rect class="cls-5" x="99.86" y="516.37" width="25.66" height="47.66"/><rect class="cls-5" x="124.57" y="564.02" width="25.66" height="47.66"/><rect class="cls-5" x="77.19" y="564.02" width="25.66" height="47.66"/><rect class="cls-5" x="99.86" y="611.68" width="25.66" height="47.66"/><rect class="cls-5" x="48.13" y="611.68" width="25.66" height="47.66"/><rect class="cls-5" x="434.27" y="567.75" width="25.66" height="47.66"/><rect class="cls-5" x="459.93" y="615.4" width="25.66" height="47.66"/><rect class="cls-5" x="357.29" y="710.72" width="25.66" height="47.66"/><rect class="cls-5" x="405.54" y="709.01" width="25.66" height="47.66"/><rect class="cls-5" x="382.95" y="758.38" width="25.66" height="47.66"/><rect class="cls-5" x="330.26" y="758.38" width="25.66" height="47.66"/><rect class="cls-5" x="277.58" y="756.67" width="25.66" height="47.66"/><rect class="cls-5" x="228.99" y="756.67" width="25.66" height="47.66"/><rect class="cls-5" x="303.24" y="804.32" width="25.66" height="47.66"/><rect class="cls-5" x="357.29" y="804.32" width="25.66" height="47.66"/><rect class="cls-5" x="408.61" y="808.46" width="25.66" height="47.66"/><rect class="cls-5" x="470.02" y="333.6" width="25.66" height="47.66"/><rect class="cls-5" x="521.55" y="329.11" width="25.66" height="47.66"/><rect class="cls-5" x="562.36" y="424.42" width="25.66" height="47.66"/><rect class="cls-5" x="534.38" y="472.08" width="25.66" height="47.66"/><rect class="cls-5" x="588.02" y="472.08" width="25.66" height="47.66"/><rect class="cls-5" x="616.32" y="424.42" width="25.66" height="47.66"/><rect class="cls-5" x="637.22" y="373.4" width="25.66" height="47.66"/><rect class="cls-5" x="662.39" y="420.34" width="25.66" height="47.66"/><rect class="cls-5" x="641.98" y="472.08" width="25.66" height="47.66"/><rect class="cls-5" x="641.36" y="186.14" width="25.66" height="47.66"/><rect class="cls-5" x="693.51" y="190.63" width="25.66" height="47.66"/><rect class="cls-5" x="663.21" y="520.09" width="25.66" height="47.66"/><rect class="cls-5" x="791.51" y="472.43" width="25.66" height="47.66"/><rect class="cls-5" x="714.53" y="519.74" width="25.66" height="47.66"/><rect class="cls-5" x="765.85" y="520.09" width="25.66" height="47.66"/><rect class="cls-5" x="817.17" y="520.09" width="25.66" height="47.66"/><rect class="cls-5" x="688.05" y="566.04" width="25.66" height="47.66"/><rect class="cls-5" x="740.19" y="571.89" width="25.66" height="47.66"/><rect class="cls-5" x="790.06" y="571.89" width="25.66" height="47.66"/><rect class="cls-5" x="765.85" y="619.54" width="25.66" height="47.66"/><rect class="cls-5" x="719.17" y="142.97" width="25.66" height="47.66"/><rect class="cls-5" x="715.98" y="238.29" width="25.66" height="47.66"/><rect class="cls-5" x="740.19" y="281.45" width="25.66" height="47.66"/><rect class="cls-5" x="790.06" y="281.45" width="25.66" height="47.66"/><rect class="cls-5" x="765.85" y="233.79" width="25.66" height="47.66"/><rect class="cls-5" x="740.19" y="190.63" width="25.66" height="47.66"/><rect class="cls-5" x="513.48" y="142.97" width="25.66" height="47.66"/><rect class="cls-5" x="251.92" y="804.32" width="25.66" height="47.66"/><rect class="cls-5" x="279.9" y="567.75" width="25.66" height="47.66"/><rect class="cls-5" x="457.4" y="524.23" width="25.66" height="47.66"/><rect class="cls-5" x="408.61" y="615.4" width="25.66" height="47.66"/><rect class="cls-5" x="292.72" y="376.77" width="25.66" height="47.66"/><rect class="cls-5" x="341.73" y="376.77" width="25.66" height="47.66"/><rect class="cls-5" x="341.73" y="186.14" width="25.66" height="47.66"/><rect class="cls-5" x="212.68" y="138.48" width="25.66" height="47.66"/><rect class="cls-5" x="187.36" y="90.82" width="25.66" height="47.66"/><rect class="cls-5" x="180.03" y="186.14" width="25.66" height="47.66"/><rect class="cls-5" x="161.7" y="329.11" width="25.66" height="47.66"/><rect class="cls-5" x="102.85" y="325.74" width="25.66" height="47.66"/><rect class="cls-5" x="51.53" y="325.74" width="25.66" height="47.66"/><rect class="cls-5" x="77.19" y="281.45" width="25.66" height="47.66"/><rect class="cls-5" x="48.13" y="233.79" width="25.66" height="47.66"/><rect class="cls-5" x="102.85" y="233.79" width="25.66" height="47.66"/><rect class="cls-5" x="77.19" y="186.14" width="25.66" height="47.66"/><rect class="cls-5" x="128.5" y="186.14" width="25.66" height="47.66"/><rect class="cls-5" x="154.37" y="138.48" width="25.66" height="47.66"/><rect class="cls-5" x="154.16" y="233.79" width="25.66" height="47.66"/><rect class="cls-5" x="136.04" y="278.08" width="25.66" height="47.66"/><rect class="cls-5" x="227.62" y="472.08" width="25.66" height="47.66"/><rect class="cls-5" x="253.28" y="519.74" width="25.66" height="47.66"/><rect class="cls-5" x="304.6" y="519.74" width="25.66" height="47.66"/><rect class="cls-5" x="253.28" y="424.42" width="25.66" height="47.66"/><rect class="cls-5" x="201.97" y="424.42" width="25.66" height="47.66"/><rect class="cls-5" x="201.97" y="519.74" width="25.66" height="47.66"/><rect class="cls-5" x="176.31" y="567.39" width="25.66" height="47.66"/><rect class="cls-5" x="175.89" y="472.08" width="25.66" height="47.66"/><rect class="cls-5" x="304.6" y="424.42" width="25.66" height="47.66"/><rect class="cls-5" x="330.26" y="472.08" width="25.66" height="47.66"/><rect class="cls-5" x="227.62" y="567.39" width="25.66" height="47.66"/><rect class="cls-5" x="278.94" y="472.08" width="25.66" height="47.66"/><rect class="cls-5" x="51.73" y="421.05" width="25.66" height="47.66"/><rect class="cls-5" x="77.39" y="468.71" width="25.66" height="47.66"/><rect class="cls-5" x="128.71" y="468.71" width="25.66" height="47.66"/><rect class="cls-5" x="77.39" y="373.4" width="25.66" height="47.66"/><rect class="cls-5" x="26.07" y="373.4" width="25.66" height="47.66"/><rect class="cls-5" x="26.07" y="468.71" width="25.66" height="47.66"/><rect class="cls-5" x="0.41" y="516.37" width="25.66" height="47.66"/><rect class="cls-5" y="421.05" width="25.66" height="47.66"/><rect class="cls-5" x="128.71" y="373.4" width="25.66" height="47.66"/><rect class="cls-5" x="154.37" y="421.05" width="25.66" height="47.66"/><rect class="cls-5" x="51.73" y="516.37" width="25.66" height="47.66"/><rect class="cls-5" x="103.05" y="421.05" width="25.66" height="47.66"/><rect class="cls-5" x="177.26" y="661.35" width="25.66" height="47.66"/><rect class="cls-5" x="202.92" y="709" width="25.66" height="47.66"/><rect class="cls-5" x="254.24" y="709" width="25.66" height="47.66"/><rect class="cls-5" x="202.92" y="613.69" width="25.66" height="47.66"/><rect class="cls-5" x="151.6" y="613.69" width="25.66" height="47.66"/><rect class="cls-5" x="151.6" y="709" width="25.66" height="47.66"/><rect class="cls-5" x="125.94" y="756.66" width="25.66" height="47.66"/><rect class="cls-5" x="125.52" y="661.35" width="25.66" height="47.66"/><rect class="cls-5" x="254.24" y="613.69" width="25.66" height="47.66"/><rect class="cls-5" x="279.9" y="661.35" width="25.66" height="47.66"/><rect class="cls-5" x="177.26" y="756.66" width="25.66" height="47.66"/><rect class="cls-5" x="228.58" y="661.35" width="25.66" height="47.66"/><rect class="cls-5" x="239.09" y="281.45" width="25.66" height="47.66"/><rect class="cls-5" x="264.75" y="329.11" width="25.66" height="47.66"/><rect class="cls-5" x="316.07" y="329.11" width="25.66" height="47.66"/><rect class="cls-5" x="264.75" y="233.79" width="25.66" height="47.66"/><rect class="cls-5" x="213.43" y="233.79" width="25.66" height="47.66"/><rect class="cls-5" x="213.43" y="329.11" width="25.66" height="47.66"/><rect class="cls-5" x="187.77" y="376.77" width="25.66" height="47.66"/><rect class="cls-5" x="187.36" y="281.45" width="25.66" height="47.66"/><rect class="cls-5" x="316.07" y="233.79" width="25.66" height="47.66"/><rect class="cls-5" x="341.73" y="281.45" width="25.66" height="47.66"/><rect class="cls-5" x="239.09" y="376.77" width="25.66" height="47.66"/><rect class="cls-5" x="290.41" y="281.45" width="25.66" height="47.66"/><rect class="cls-5" x="290.08" y="90.82" width="25.66" height="47.66"/><rect class="cls-5" x="315.74" y="138.48" width="25.66" height="47.66"/><rect class="cls-5" x="367.05" y="138.48" width="25.66" height="47.66"/><rect class="cls-5" x="315.74" y="43.17" width="25.66" height="47.66"/><rect class="cls-5" x="264.42" y="43.17" width="25.66" height="47.66"/><rect class="cls-5" x="264.42" y="138.48" width="25.66" height="47.66"/><rect class="cls-5" x="238.76" y="186.14" width="25.66" height="47.66"/><rect class="cls-5" x="238.34" y="90.82" width="25.66" height="47.66"/><rect class="cls-5" x="367.05" y="43.17" width="25.66" height="47.66"/><rect class="cls-5" x="392.71" y="90.82" width="25.66" height="47.66"/><rect class="cls-5" x="290.08" y="186.14" width="25.66" height="47.66"/><rect class="cls-5" x="341.39" y="90.82" width="25.66" height="47.66"/><rect class="cls-5" x="459.72" y="47.65" width="25.66" height="47.66"/><rect class="cls-5" x="485.38" y="95.31" width="25.66" height="47.66"/><rect class="cls-5" x="536.7" y="95.31" width="25.66" height="47.66"/><rect class="cls-5" x="485.38" width="25.66" height="47.65"/><rect class="cls-5" x="434.06" width="25.66" height="47.65"/><rect class="cls-5" x="434.06" y="95.31" width="25.66" height="47.66"/><rect class="cls-5" x="408.4" y="142.97" width="25.66" height="47.66"/><rect class="cls-5" x="407.99" y="47.65" width="25.66" height="47.66"/><rect class="cls-5" x="536.7" width="25.66" height="47.65"/><rect class="cls-5" x="562.36" y="47.65" width="25.66" height="47.66"/><rect class="cls-5" x="459.72" y="142.97" width="25.66" height="47.66"/><rect class="cls-5" x="511.04" y="47.65" width="25.66" height="47.66"/><rect class="cls-5" x="419.12" y="238.28" width="25.66" height="47.66"/><rect class="cls-5" x="444.78" y="285.94" width="25.66" height="47.66"/><rect class="cls-5" x="496.1" y="285.94" width="25.66" height="47.66"/><rect class="cls-5" x="444.78" y="190.63" width="25.66" height="47.66"/><rect class="cls-5" x="393.46" y="190.63" width="25.66" height="47.66"/><rect class="cls-5" x="393.46" y="285.94" width="25.66" height="47.66"/><rect class="cls-5" x="367.8" y="333.6" width="25.66" height="47.66"/><rect class="cls-5" x="367.39" y="238.28" width="25.66" height="47.66"/><rect class="cls-5" x="496.1" y="190.63" width="25.66" height="47.66"/><rect class="cls-5" x="521.76" y="238.28" width="25.66" height="47.66"/><rect class="cls-5" x="419.12" y="333.6" width="25.66" height="47.66"/><rect class="cls-5" x="470.44" y="238.28" width="25.66" height="47.66"/><rect class="cls-5" x="587.68" y="281.45" width="25.66" height="47.66"/><rect class="cls-5" x="613.34" y="329.11" width="25.66" height="47.66"/><rect class="cls-5" x="664.66" y="329.11" width="25.66" height="47.66"/><rect class="cls-5" x="613.34" y="233.79" width="25.66" height="47.66"/><rect class="cls-5" x="562.03" y="233.79" width="25.66" height="47.66"/><rect class="cls-5" x="562.03" y="329.11" width="25.66" height="47.66"/><rect class="cls-5" x="536.37" y="376.77" width="25.66" height="47.66"/><rect class="cls-5" x="535.95" y="281.45" width="25.66" height="47.66"/><rect class="cls-5" x="664.66" y="233.79" width="25.66" height="47.66"/><rect class="cls-5" x="690.32" y="281.45" width="25.66" height="47.66"/><rect class="cls-5" x="587.68" y="376.77" width="25.66" height="47.66"/><rect class="cls-5" x="639" y="281.45" width="25.66" height="47.66"/><rect class="cls-5" x="590.87" y="94.96" width="25.66" height="47.66"/><rect class="cls-5" x="616.53" y="142.62" width="25.66" height="47.66"/><rect class="cls-5" x="667.85" y="142.62" width="25.66" height="47.66"/><rect class="cls-5" x="616.53" y="47.31" width="25.66" height="47.66"/><rect class="cls-5" x="565.21" y="47.31" width="25.66" height="47.66"/><rect class="cls-5" x="565.21" y="142.62" width="25.66" height="47.66"/><rect class="cls-5" x="539.55" y="190.28" width="25.66" height="47.66"/><rect class="cls-5" x="539.14" y="94.96" width="25.66" height="47.66"/><rect class="cls-5" x="667.85" y="47.31" width="25.66" height="47.66"/><rect class="cls-5" x="693.51" y="94.96" width="25.66" height="47.66"/><rect class="cls-5" x="590.87" y="190.28" width="25.66" height="47.66"/><rect class="cls-5" x="642.19" y="94.96" width="25.66" height="47.66"/><rect class="cls-5" x="739.78" y="376.77" width="25.66" height="47.66"/><rect class="cls-5" x="765.44" y="424.42" width="25.66" height="47.66"/><rect class="cls-5" x="816.76" y="424.42" width="25.66" height="47.66"/><rect class="cls-5" x="765.44" y="329.11" width="25.66" height="47.66"/><rect class="cls-5" x="714.12" y="329.11" width="25.66" height="47.66"/><rect class="cls-5" x="714.12" y="424.42" width="25.66" height="47.66"/><rect class="cls-5" x="688.46" y="472.08" width="25.66" height="47.66"/><rect class="cls-5" x="688.05" y="376.77" width="25.66" height="47.66"/><rect class="cls-5" x="816.76" y="329.11" width="25.66" height="47.66"/><rect class="cls-5" x="842.42" y="376.77" width="25.66" height="47.66"/><rect class="cls-5" x="739.78" y="472.08" width="25.66" height="47.66"/><rect class="cls-5" x="791.1" y="376.77" width="25.66" height="47.66"/><rect class="cls-1" x="63.81" y="216.47" width="677.11" height="455.39"/></g></svg>