<svg id="Layer_1" data-name="Layer 1" xmlns="http://www.w3.org/2000/svg" xmlns:xlink="http://www.w3.org/1999/xlink" viewBox="0 0 394.84 411.69"><defs><style>.cls-1{fill:none;}.cls-2{clip-path:url(#clip-path);}.cls-3{fill:#231f20;}.cls-4{fill:#fff;}</style><clipPath id="clip-path" transform="translate(11.67 16.2)"><rect class="cls-1" x="-11.67" y="-16.21" width="394.84" height="411.69"/></clipPath></defs><title>checkered-circle</title><g class="cls-2"><path class="cls-3" d="M187.39,371.92c101.28,0,183.39-83.32,183.39-186.1S288.68-.27,187.39-.27,4,83,4,185.82s82.1,186.1,183.39,186.1" transform="translate(11.67 16.2)"/></g><line class="cls-4" x1="325" y1="346.04" x2="315.22" y2="346.04"/><line class="cls-4" x1="325" y1="367.72" x2="325" y2="346.04"/><line class="cls-4" x1="313.33" y1="367.72" x2="325" y2="367.72"/><line class="cls-4" x1="313.33" y1="347.59" x2="313.33" y2="367.72"/><polyline class="cls-4" points="315.22 346.04 313.33 346.04 313.33 347.59"/><rect class="cls-4" x="289.99" y="302.69" width="11.67" height="21.68"/><rect class="cls-4" x="301.66" y="324.37" width="11.67" height="21.68"/><polyline class="cls-4" points="325 337.3 325 346.05 336.67 346.05 336.67 325.04"/><rect class="cls-4" x="301.66" y="281.01" width="11.67" height="21.68"/><rect class="cls-4" x="278.32" y="281.01" width="11.67" height="21.68"/><rect class="cls-4" x="278.32" y="324.37" width="11.67" height="21.68"/><rect class="cls-4" x="266.64" y="346.04" width="11.67" height="21.68"/><rect class="cls-4" x="266.46" y="302.69" width="11.67" height="21.68"/><rect class="cls-4" x="325" y="281.01" width="11.67" height="21.68"/><rect class="cls-4" x="336.67" y="302.69" width="11.67" height="21.68"/><rect class="cls-4" x="289.99" y="346.04" width="11.67" height="21.68"/><rect class="cls-4" x="313.33" y="302.69" width="11.67" height="21.68"/><rect class="cls-4" x="243.15" y="258.07" width="11.67" height="21.68"/><rect class="cls-4" x="254.82" y="279.75" width="11.67" height="21.68"/><rect class="cls-4" x="278.17" y="279.75" width="11.67" height="21.68"/><rect class="cls-4" x="254.82" y="236.4" width="11.67" height="21.68"/><rect class="cls-4" x="231.48" y="236.4" width="11.67" height="21.68"/><rect class="cls-4" x="231.48" y="279.75" width="11.67" height="21.68"/><rect class="cls-4" x="219.81" y="301.43" width="11.67" height="21.68"/><rect class="cls-4" x="219.62" y="258.07" width="11.67" height="21.68"/><rect class="cls-4" x="278.17" y="236.4" width="11.67" height="21.68"/><rect class="cls-4" x="289.84" y="258.07" width="11.67" height="21.68"/><rect class="cls-4" x="243.15" y="301.43" width="11.67" height="21.68"/><rect class="cls-4" x="266.49" y="258.07" width="11.67" height="21.68"/><rect class="cls-4" x="219.81" y="346.66" width="11.67" height="21.68"/><rect class="cls-4" x="231.48" y="368.34" width="11.67" height="21.68"/><rect class="cls-4" x="254.82" y="368.34" width="11.67" height="21.68"/><rect class="cls-4" x="231.48" y="324.98" width="11.67" height="21.68"/><rect class="cls-4" x="208.14" y="324.98" width="11.67" height="21.68"/><rect class="cls-4" x="208.14" y="368.34" width="11.67" height="21.68"/><rect class="cls-4" x="196.47" y="390.01" width="11.67" height="21.68"/><rect class="cls-4" x="196.28" y="346.66" width="11.67" height="21.68"/><rect class="cls-4" x="254.82" y="324.98" width="11.67" height="21.68"/><rect class="cls-4" x="266.49" y="346.66" width="11.67" height="21.68"/><rect class="cls-4" x="219.81" y="390.01" width="11.67" height="21.68"/><rect class="cls-4" x="243.15" y="346.66" width="11.67" height="21.68"/><rect class="cls-4" x="185.42" y="195.09" width="11.67" height="21.68"/><rect class="cls-4" x="197.09" y="216.76" width="11.67" height="21.68"/><rect class="cls-4" x="220.43" y="216.76" width="11.67" height="21.68"/><rect class="cls-4" x="197.09" y="173.41" width="11.67" height="21.68"/><rect class="cls-4" x="173.75" y="173.41" width="11.67" height="21.68"/><rect class="cls-4" x="173.75" y="216.76" width="11.67" height="21.68"/><rect class="cls-4" x="162.08" y="238.44" width="11.67" height="21.68"/><rect class="cls-4" x="161.89" y="195.09" width="11.67" height="21.68"/><rect class="cls-4" x="220.43" y="173.41" width="11.67" height="21.68"/><rect class="cls-4" x="232.1" y="195.09" width="11.67" height="21.68"/><rect class="cls-4" x="185.42" y="238.44" width="11.67" height="21.68"/><rect class="cls-4" x="208.76" y="195.09" width="11.67" height="21.68"/><rect class="cls-4" x="162.51" y="279.91" width="11.67" height="21.68"/><rect class="cls-4" x="174.18" y="301.59" width="11.67" height="21.68"/><rect class="cls-4" x="197.52" y="301.59" width="11.67" height="21.68"/><rect class="cls-4" x="174.18" y="258.23" width="11.67" height="21.68"/><rect class="cls-4" x="150.84" y="258.23" width="11.67" height="21.68"/><rect class="cls-4" x="150.84" y="301.59" width="11.67" height="21.68"/><rect class="cls-4" x="139.17" y="323.26" width="11.67" height="21.68"/><rect class="cls-4" x="138.98" y="279.91" width="11.67" height="21.68"/><rect class="cls-4" x="68.33" y="234.86" width="11.67" height="21.68"/><rect class="cls-4" x="45.42" y="234.86" width="11.67" height="21.68"/><rect class="cls-4" x="56.66" y="256.54" width="11.67" height="21.68"/><rect class="cls-4" x="35.11" y="256.54" width="11.67" height="21.68"/><rect class="cls-4" x="45.42" y="278.22" width="11.67" height="21.68"/><rect class="cls-4" x="21.89" y="278.22" width="11.67" height="21.68"/><rect class="cls-4" x="197.52" y="258.23" width="11.67" height="21.68"/><rect class="cls-4" x="209.19" y="279.91" width="11.67" height="21.68"/><rect class="cls-4" x="162.51" y="323.26" width="11.67" height="21.68"/><rect class="cls-4" x="184.46" y="322.48" width="11.67" height="21.68"/><rect class="cls-4" x="174.18" y="344.94" width="11.67" height="21.68"/><rect class="cls-4" x="150.22" y="344.94" width="11.67" height="21.68"/><rect class="cls-4" x="126.25" y="344.16" width="11.67" height="21.68"/><rect class="cls-4" x="104.15" y="344.16" width="11.67" height="21.68"/><rect class="cls-4" x="137.92" y="365.84" width="11.67" height="21.68"/><rect class="cls-4" x="162.51" y="365.84" width="11.67" height="21.68"/><rect class="cls-4" x="185.85" y="367.72" width="11.67" height="21.68"/><rect class="cls-4" x="213.79" y="151.73" width="11.67" height="21.68"/><rect class="cls-4" x="237.22" y="149.69" width="11.67" height="21.68"/><rect class="cls-4" x="255.78" y="193.05" width="11.67" height="21.68"/><rect class="cls-4" x="243.06" y="214.72" width="11.67" height="21.68"/><rect class="cls-4" x="267.45" y="214.72" width="11.67" height="21.68"/><rect class="cls-4" x="280.33" y="193.05" width="11.67" height="21.68"/><rect class="cls-4" x="289.84" y="169.84" width="11.67" height="21.68"/><rect class="cls-4" x="301.28" y="191.19" width="11.67" height="21.68"/><rect class="cls-4" x="292" y="214.72" width="11.67" height="21.68"/><rect class="cls-4" x="291.72" y="84.66" width="11.67" height="21.68"/><rect class="cls-4" x="315.44" y="86.7" width="11.67" height="21.68"/><rect class="cls-4" x="301.66" y="236.56" width="11.67" height="21.68"/><rect class="cls-4" x="360.01" y="214.88" width="11.67" height="21.68"/><rect class="cls-4" x="325" y="236.4" width="11.67" height="21.68"/><rect class="cls-4" x="348.34" y="236.56" width="11.67" height="21.68"/><rect class="cls-4" x="371.68" y="236.56" width="11.67" height="21.68"/><rect class="cls-4" x="312.95" y="257.45" width="11.67" height="21.68"/><rect class="cls-4" x="336.67" y="260.12" width="11.67" height="21.68"/><rect class="cls-4" x="359.35" y="260.12" width="11.67" height="21.68"/><rect class="cls-4" x="348.34" y="281.79" width="11.67" height="21.68"/><rect class="cls-4" x="327.11" y="65.03" width="11.67" height="21.68"/><rect class="cls-4" x="325.66" y="108.38" width="11.67" height="21.68"/><rect class="cls-4" x="336.67" y="128.02" width="11.67" height="21.68"/><rect class="cls-4" x="359.35" y="128.02" width="11.67" height="21.68"/><rect class="cls-4" x="348.34" y="106.34" width="11.67" height="21.68"/><rect class="cls-4" x="336.67" y="86.7" width="11.67" height="21.68"/><rect class="cls-4" x="233.55" y="65.03" width="11.67" height="21.68"/><rect class="cls-4" x="114.58" y="365.84" width="11.67" height="21.68"/><rect class="cls-4" x="127.31" y="258.23" width="11.67" height="21.68"/><rect class="cls-4" x="208.04" y="238.44" width="11.67" height="21.68"/><rect class="cls-4" x="185.85" y="279.91" width="11.67" height="21.68"/><rect class="cls-4" x="133.14" y="171.37" width="11.67" height="21.68"/><rect class="cls-4" x="155.43" y="171.37" width="11.67" height="21.68"/><rect class="cls-4" x="155.43" y="84.66" width="11.67" height="21.68"/><rect class="cls-4" x="96.74" y="62.99" width="11.67" height="21.68"/><rect class="cls-4" x="85.22" y="41.31" width="11.67" height="21.68"/><rect class="cls-4" x="81.89" y="84.66" width="11.67" height="21.68"/><rect class="cls-4" x="73.55" y="149.69" width="11.67" height="21.68"/><rect class="cls-4" x="46.78" y="148.16" width="11.67" height="21.68"/><rect class="cls-4" x="23.44" y="148.16" width="11.67" height="21.68"/><rect class="cls-4" x="35.11" y="128.02" width="11.67" height="21.68"/><rect class="cls-4" x="21.89" y="106.34" width="11.67" height="21.68"/><rect class="cls-4" x="46.78" y="106.34" width="11.67" height="21.68"/><rect class="cls-4" x="35.11" y="84.66" width="11.67" height="21.68"/><rect class="cls-4" x="58.45" y="84.66" width="11.67" height="21.68"/><rect class="cls-4" x="70.21" y="62.99" width="11.67" height="21.68"/><rect class="cls-4" x="70.12" y="106.34" width="11.67" height="21.68"/><rect class="cls-4" x="61.88" y="126.48" width="11.67" height="21.68"/><rect class="cls-4" x="103.53" y="214.72" width="11.67" height="21.68"/><rect class="cls-4" x="115.2" y="236.4" width="11.67" height="21.68"/><rect class="cls-4" x="138.55" y="236.4" width="11.67" height="21.68"/><rect class="cls-4" x="115.2" y="193.05" width="11.67" height="21.68"/><rect class="cls-4" x="91.86" y="193.05" width="11.67" height="21.68"/><rect class="cls-4" x="91.86" y="236.4" width="11.67" height="21.68"/><rect class="cls-4" x="80.19" y="258.07" width="11.67" height="21.68"/><rect class="cls-4" x="80" y="214.72" width="11.67" height="21.68"/><rect class="cls-4" x="138.55" y="193.05" width="11.67" height="21.68"/><rect class="cls-4" x="150.22" y="214.72" width="11.67" height="21.68"/><rect class="cls-4" x="103.53" y="258.07" width="11.67" height="21.68"/><rect class="cls-4" x="126.88" y="214.72" width="11.67" height="21.68"/><rect class="cls-4" x="23.53" y="191.51" width="11.67" height="21.68"/><rect class="cls-4" x="35.2" y="213.19" width="11.67" height="21.68"/><rect class="cls-4" x="58.54" y="213.19" width="11.67" height="21.68"/><rect class="cls-4" x="35.2" y="169.84" width="11.67" height="21.68"/><rect class="cls-4" x="11.86" y="169.84" width="11.67" height="21.68"/><rect class="cls-4" x="11.86" y="213.19" width="11.67" height="21.68"/><rect class="cls-4" x="0.19" y="234.86" width="11.67" height="21.68"/><rect class="cls-4" y="191.51" width="11.67" height="21.68"/><rect class="cls-4" x="58.54" y="169.84" width="11.67" height="21.68"/><rect class="cls-4" x="70.21" y="191.51" width="11.67" height="21.68"/><rect class="cls-4" x="23.53" y="234.86" width="11.67" height="21.68"/><rect class="cls-4" x="46.87" y="191.51" width="11.67" height="21.68"/><rect class="cls-4" x="80.62" y="300.81" width="11.67" height="21.68"/><rect class="cls-4" x="92.29" y="322.48" width="11.67" height="21.68"/><rect class="cls-4" x="115.64" y="322.48" width="11.67" height="21.68"/><rect class="cls-4" x="92.29" y="279.13" width="11.67" height="21.68"/><rect class="cls-4" x="68.95" y="279.13" width="11.67" height="21.68"/><rect class="cls-4" x="68.95" y="322.48" width="11.67" height="21.68"/><rect class="cls-4" x="57.28" y="344.16" width="11.67" height="21.68"/><rect class="cls-4" x="57.09" y="300.81" width="11.67" height="21.68"/><rect class="cls-4" x="115.64" y="279.13" width="11.67" height="21.68"/><rect class="cls-4" x="127.31" y="300.81" width="11.67" height="21.68"/><rect class="cls-4" x="80.62" y="344.16" width="11.67" height="21.68"/><rect class="cls-4" x="103.97" y="300.81" width="11.67" height="21.68"/><rect class="cls-4" x="108.75" y="128.02" width="11.67" height="21.68"/><rect class="cls-4" x="120.42" y="149.69" width="11.67" height="21.68"/><rect class="cls-4" x="143.76" y="149.69" width="11.67" height="21.68"/><rect class="cls-4" x="120.42" y="106.34" width="11.67" height="21.68"/><rect class="cls-4" x="97.08" y="106.34" width="11.67" height="21.68"/><rect class="cls-4" x="97.08" y="149.69" width="11.67" height="21.68"/><rect class="cls-4" x="85.41" y="171.37" width="11.67" height="21.68"/><rect class="cls-4" x="85.22" y="128.02" width="11.67" height="21.68"/><rect class="cls-4" x="143.76" y="106.34" width="11.67" height="21.68"/><rect class="cls-4" x="155.43" y="128.02" width="11.67" height="21.68"/><rect class="cls-4" x="108.75" y="171.37" width="11.67" height="21.68"/><rect class="cls-4" x="132.09" y="128.02" width="11.67" height="21.68"/><rect class="cls-4" x="131.94" y="41.31" width="11.67" height="21.68"/><rect class="cls-4" x="143.61" y="62.99" width="11.67" height="21.68"/><rect class="cls-4" x="166.95" y="62.99" width="11.67" height="21.68"/><rect class="cls-4" x="143.61" y="19.64" width="11.67" height="21.68"/><rect class="cls-4" x="120.27" y="19.64" width="11.67" height="21.68"/><rect class="cls-4" x="120.27" y="62.99" width="11.67" height="21.68"/><rect class="cls-4" x="108.6" y="84.66" width="11.67" height="21.68"/><rect class="cls-4" x="108.41" y="41.31" width="11.67" height="21.68"/><rect class="cls-4" x="166.95" y="19.64" width="11.67" height="21.68"/><rect class="cls-4" x="178.62" y="41.31" width="11.67" height="21.68"/><rect class="cls-4" x="131.94" y="84.66" width="11.67" height="21.68"/><rect class="cls-4" x="155.28" y="41.31" width="11.67" height="21.68"/><rect class="cls-4" x="209.1" y="21.68" width="11.67" height="21.68"/><rect class="cls-4" x="220.77" y="43.35" width="11.67" height="21.68"/><rect class="cls-4" x="244.11" y="43.35" width="11.67" height="21.68"/><rect class="cls-4" x="220.77" width="11.67" height="21.68"/><polyline class="cls-4" points="209.1 16.2 209.1 0 197.43 0 197.43 15.94"/><polyline class="cls-4" points="197.43 15.94 197.43 21.68 209.1 21.68 209.1 16.2"/><rect class="cls-4" x="197.43" y="43.35" width="11.67" height="21.68"/><rect class="cls-4" x="185.76" y="65.03" width="11.67" height="21.68"/><rect class="cls-4" x="185.57" y="21.68" width="11.67" height="21.68"/><rect class="cls-4" x="244.11" width="11.67" height="21.68"/><rect class="cls-4" x="255.78" y="21.68" width="11.67" height="21.68"/><rect class="cls-4" x="209.1" y="65.03" width="11.67" height="21.68"/><rect class="cls-4" x="232.44" y="21.68" width="11.67" height="21.68"/><rect class="cls-4" x="190.63" y="108.38" width="11.67" height="21.68"/><rect class="cls-4" x="202.3" y="130.06" width="11.67" height="21.68"/><rect class="cls-4" x="225.65" y="130.06" width="11.67" height="21.68"/><rect class="cls-4" x="202.3" y="86.7" width="11.67" height="21.68"/><rect class="cls-4" x="178.96" y="86.7" width="11.67" height="21.68"/><rect class="cls-4" x="178.96" y="130.06" width="11.67" height="21.68"/><rect class="cls-4" x="167.29" y="151.73" width="11.67" height="21.68"/><rect class="cls-4" x="167.1" y="108.38" width="11.67" height="21.68"/><rect class="cls-4" x="225.65" y="86.7" width="11.67" height="21.68"/><rect class="cls-4" x="237.32" y="108.38" width="11.67" height="21.68"/><rect class="cls-4" x="190.63" y="151.73" width="11.67" height="21.68"/><rect class="cls-4" x="213.97" y="108.38" width="11.67" height="21.68"/><rect class="cls-4" x="267.3" y="128.02" width="11.67" height="21.68"/><rect class="cls-4" x="278.97" y="149.69" width="11.67" height="21.68"/><rect class="cls-4" x="302.32" y="149.69" width="11.67" height="21.68"/><rect class="cls-4" x="278.97" y="106.34" width="11.67" height="21.68"/><rect class="cls-4" x="255.63" y="106.34" width="11.67" height="21.68"/><rect class="cls-4" x="255.63" y="149.69" width="11.67" height="21.68"/><rect class="cls-4" x="243.96" y="171.37" width="11.67" height="21.68"/><rect class="cls-4" x="243.77" y="128.02" width="11.67" height="21.68"/><rect class="cls-4" x="302.32" y="106.34" width="11.67" height="21.68"/><rect class="cls-4" x="313.99" y="128.02" width="11.67" height="21.68"/><rect class="cls-4" x="267.3" y="171.37" width="11.67" height="21.68"/><rect class="cls-4" x="290.65" y="128.02" width="11.67" height="21.68"/><rect class="cls-4" x="268.75" y="43.19" width="11.67" height="21.68"/><rect class="cls-4" x="280.42" y="64.87" width="11.67" height="21.68"/><rect class="cls-4" x="303.77" y="64.87" width="11.67" height="21.68"/><rect class="cls-4" x="280.42" y="21.52" width="11.67" height="21.68"/><rect class="cls-4" x="257.08" y="21.52" width="11.67" height="21.68"/><rect class="cls-4" x="257.08" y="64.87" width="11.67" height="21.68"/><rect class="cls-4" x="245.41" y="86.54" width="11.67" height="21.68"/><rect class="cls-4" x="245.22" y="43.19" width="11.67" height="21.68"/><rect class="cls-4" x="303.77" y="21.52" width="11.67" height="21.68"/><rect class="cls-4" x="315.44" y="43.19" width="11.67" height="21.68"/><rect class="cls-4" x="268.75" y="86.54" width="11.67" height="21.68"/><rect class="cls-4" x="292.09" y="43.19" width="11.67" height="21.68"/><rect class="cls-4" x="336.48" y="171.37" width="11.67" height="21.68"/><rect class="cls-4" x="348.15" y="193.05" width="11.67" height="21.68"/><rect class="cls-4" x="371.5" y="193.05" width="11.67" height="21.68"/><rect class="cls-4" x="348.15" y="149.69" width="11.67" height="21.68"/><rect class="cls-4" x="324.81" y="149.69" width="11.67" height="21.68"/><rect class="cls-4" x="324.81" y="193.05" width="11.67" height="21.68"/><rect class="cls-4" x="313.14" y="214.72" width="11.67" height="21.68"/><rect class="cls-4" x="312.95" y="171.37" width="11.67" height="21.68"/><rect class="cls-4" x="371.5" y="149.69" width="11.67" height="21.68"/><rect class="cls-4" x="383.17" y="171.37" width="11.67" height="21.68"/><rect class="cls-4" x="336.48" y="214.72" width="11.67" height="21.68"/><rect class="cls-4" x="359.82" y="171.37" width="11.67" height="21.68"/></svg>