<?xml version="1.0" encoding="utf-8"?>
<!-- Generator: Adobe Illustrator 20.0.0, SVG Export Plug-In . SVG Version: 6.00 Build 0)  -->
<svg version="1.1" id="Layer_1" xmlns="http://www.w3.org/2000/svg" xmlns:xlink="http://www.w3.org/1999/xlink" x="0px" y="0px"
	 viewBox="0 0 148.5 69.1" style="enable-background:new 0 0 148.5 69.1;" xml:space="preserve">
<style type="text/css">
	.st0{clip-path:url(#SVGID_2_);fill:none;stroke:#231F20;stroke-width:0.349;}
	.st1{clip-path:url(#SVGID_2_);fill:none;stroke:#231F20;stroke-width:1.395;}
	.st2{clip-path:url(#SVGID_2_);fill:none;stroke:#231F20;stroke-width:2.092;}
	.st3{fill:#231F20;}
	.st4{fill:none;stroke:#231F20;}
	.st5{fill:none;}
</style>
<g>
	<defs>
		<rect id="SVGID_1_" x="-8.2" y="-6.5" width="164.5" height="75.6"/>
	</defs>
	<clipPath id="SVGID_2_">
		<use xlink:href="#SVGID_1_"  style="overflow:visible;"/>
	</clipPath>
	<path class="st0" d="M5.3,0.6c0,0-4.3,0-4.3,4.3v58.6c0,0,0,4.3,4.3,4.3h137.6c0,0,4.3,0,4.3-4.3V5c0,0,0-4.3-4.3-4.3H5.3z"/>
	<path class="st1" d="M147,4.4c-0.1,20.7-0.1,41.7,0,63"/>
	<path class="st2" d="M3.9,67.8c47,0.3,94,0.3,141,0"/>
</g>
<path class="st3" d="M146.3,4.3"/>
<path class="st3" d="M146.3,4.3c0,0,0.5-2.1-1-3.3s2.3,1.1,2.4,3.3S147.2,5,147.2,5L146.3,4.3z"/>
<path class="st3" d="M147.6,4.8"/>
<polygon class="st3" points="147.7,4.4 147.5,3.9 147.5,4.3 147.6,4.4 "/>
<path class="st3" d="M3.9,66.7c0,0-2.3-1-2.6-1.7s-0.4,2.4,2.6,3.8l1.4-1.1L3.9,66.7z"/>
<line class="st4" x1="2.7" y1="66.7" x2="146.5" y2="66.7"/>
<line class="st4" x1="2.7" y1="66.4" x2="146.5" y2="66.4"/>
<path class="st5" d="M2.7,65.2c0,0-1.4-0.4-1.6-0.7c-0.2-0.4,0.5,1.7,0.5,1.7l1.7,0.8l0.3-1.1L2.7,65.2z"/>
<path class="st3" d="M2.7,66c0,0-0.4,0-0.6-0.2c-0.3-0.2,0.6,0.9,0.6,0.9l0.5-0.6L2.7,66z"/>
<path class="st3" d="M144.8,68.8h1c0,0,1.9-0.4,1.9-1.5v-1.4l-2.9,0.8V68.8z"/>
</svg>
